<?xml version="1.0" encoding="utf-8"?>
<!-- Generator: Adobe Illustrator 15.0.0, SVG Export Plug-In . SVG Version: 6.00 Build 0)  -->
<!DOCTYPE svg PUBLIC "-//W3C//DTD SVG 1.1//EN" "http://www.w3.org/Graphics/SVG/1.1/DTD/svg11.dtd">
<svg version="1.1" id="Ebene_1" xmlns="http://www.w3.org/2000/svg" xmlns:xlink="http://www.w3.org/1999/xlink" x="0px" y="0px"
	 width="226.771px" height="226.771px" viewBox="0 0 226.771 226.771" enable-background="new 0 0 226.771 226.771"
	 xml:space="preserve">
<g>
	<path fill-rule="evenodd" clip-rule="evenodd" d="M48.692,63.747c-5.803,31.69,0.46,63.176,12.235,82.524
		c12.467,20.486,31.167,35.145,52.537,45.822c31.307-16.611,59.271-39.67,65.493-82.046c2.016-13.736,1.503-31.021-0.48-46.061
		c-4.715,1.03-9.6,2.973-15.354,3.358c-25.84,1.733-39.246-15.956-49.659-30.467c-7.466,10.832-14.967,20.526-28.067,26.389
		c-3.846,1.722-16.878,7-17.993-1.199c-0.446-3.285,1.802-6.323,2.879-6.957c1.977-1.162,5.155-1.113,7.438-1.919
		c10.859-3.836,18.325-12.209,24.229-21.352c2.996-4.639,4.054-9.242,10.315-9.836c8.493-0.805,10.543,6.46,13.914,11.275
		c5.505,7.864,10.39,13.325,18.712,17.753c4.099,2.18,8.738,4.223,15.354,4.078c4.337-0.095,8.148-1.039,11.516-2.159
		c2.687-0.894,5.358-2.839,9.355-2.639c9.082,0.455,9.364,9.05,10.316,18.232c1.277,12.327,1.549,28.375,0,40.782
		c-2.035,16.301-7.876,31.934-14.634,43.182c-12.141,20.205-31.025,35.844-52.778,48.219c-3.078,1.752-7.257,4.369-10.795,4.08
		c-6.565-0.537-14.326-6.404-19.432-9.598c-17.746-11.094-33.284-25.67-43.662-42.941c-7.023-11.688-12.329-25.143-14.634-43.181
		c-1.781-13.94-1.469-27.255,0-40.783c1.014-9.335,1.593-19.502,12.715-17.753c2.462,0.388,5.253,1.933,8.636,2.879
		c3.678,1.029,6.382,1.724,7.438,4.079c1.561,3.481-0.034,7.499-3.839,8.636C56.47,67.333,52.905,64.759,48.692,63.747z"/>
	<path fill-rule="evenodd" clip-rule="evenodd" d="M156.407,85.577c-3.295,0.403-6.716,1.654-10.796,1.68
		c-15.497,0.095-25.373-10.185-32.146-19.432c-7.503,11.771-23.647,24.1-42.941,17.513c-6.296,44.494,15.302,69.693,42.941,83.244
		c5.073-1.104,6.831-6.342,12.715-5.277c3.207,0.582,5.133,3.758,3.839,8.156c-0.838,2.848-4.419,4.424-7.197,5.998
		c-2.896,1.641-5.498,3.75-9.116,3.838c-4.642,0.115-10.248-4.031-14.154-6.477c-25.015-15.662-44.027-38.633-41.982-80.606
		c0.412-8.45,0.359-20.968,8.157-22.311c4.23-0.729,6.85,1.63,9.836,2.398c13.524,3.485,22.48-5.565,27.828-13.194
		c2.328-3.321,3.85-8.756,9.836-8.876c5.206-0.104,7.051,3.653,9.116,6.957c5.062,8.097,14.229,18.462,28.548,15.113
		c3.146-0.735,6.008-2.864,9.836-2.398c6.93,0.844,7.356,8.07,8.156,16.073c2.837,28.373-4.939,51.611-18.232,67.412
		c-3.163,3.76-8.786,10.926-13.914,10.555c-2.646-0.189-5.26-2.33-5.518-5.277c-0.31-3.537,2.58-5.658,5.038-7.916
		C151.438,138.794,160.898,115.585,156.407,85.577z"/>
</g>
</svg>
