<?xml version="1.0" encoding="utf-8"?>
<!-- Generator: Adobe Illustrator 15.0.0, SVG Export Plug-In . SVG Version: 6.00 Build 0)  -->
<!DOCTYPE svg PUBLIC "-//W3C//DTD SVG 1.1//EN" "http://www.w3.org/Graphics/SVG/1.1/DTD/svg11.dtd">
<svg version="1.1" id="Ebene_1" xmlns="http://www.w3.org/2000/svg" xmlns:xlink="http://www.w3.org/1999/xlink" x="0px" y="0px"
	 width="226.771px" height="226.771px" viewBox="0 0 226.771 226.771" enable-background="new 0 0 226.771 226.771"
	 xml:space="preserve">
<g>
	<path fill-rule="evenodd" clip-rule="evenodd" d="M147.36,41.962c5.506-3.464,8.039-14.314,18.713-12.715
		c4.125,0.619,8.969,5.083,9.596,10.316c0.428,3.582-1.701,6.614-2.398,10.315c8.398-3.992,20.266-9.56,29.746-14.634
		c3.158-1.69,6.953-4.174,10.076-4.798c6.215-1.241,9.316,6.563,4.078,10.076c-14.354,6.469-30.559,15.318-45.82,22.551
		c-4.502,2.133-9.621,4.391-11.994-1.2c0.139-8.658,4.639-14.23,5.037-21.831c-2.223,0.393-3.08,2.827-4.318,4.318
		c-2.432,2.931-5.02,6.356-7.676,9.596c-1.965,2.396-6.559,6.722-10.316,2.879c-2.33-2.385-3.324-8.452-4.799-12.235
		c-0.779-2.004-1.688-3.942-2.398-5.997c-0.705-2.041-1.24-4.365-2.158-6.237c-2.146-4.375-5.668-11.952-6.717-17.513
		c-1.23-6.511,6.609-9.659,10.074-3.838C140.093,21.082,143.968,31.281,147.36,41.962z"/>
	<path fill-rule="evenodd" clip-rule="evenodd" d="M114.495,8.137c8.264-2.253,9.25,12.685,3.119,13.914
		C109.908,23.596,107.773,10.137,114.495,8.137z"/>
	<path fill-rule="evenodd" clip-rule="evenodd" d="M96.742,45.801c-1.005,1.765,0.86,3.384,1.679,5.038
		c1.649,3.33,2.937,6.932,4.558,10.555c0.748,1.67,2.112,3.859,2.159,5.278c0.291,8.614-10.311,4.496-16.073,3.359
		c-11.738-2.316-23.378-5.759-34.785-7.197c0.498,1.886,2.53,3.02,4.078,4.079c9.529,6.515,19.161,13.313,29.028,19.912
		c3.105,2.076,9.206,5.616,4.798,10.555c-1.143,1.281-4.09,2.057-6.477,2.879c-4.689,1.617-9.207,3.258-13.914,4.799
		c-2.395,0.783-5.07,1.192-6.478,2.879c1.847,1.267,5.041,0.959,8.157,0.959c2.915,0,6.001,0.119,8.876,0.24
		c4.533,0.191,8.823-0.167,9.596,4.078c0.669,3.674-2.658,6.609-4.798,9.117c-21.181,24.807-41.688,49.148-63.333,74.129
		c-2.041,2.355-7.121,9.84-10.315,10.795c-5.411,1.617-8.494-3.916-6.237-8.156c0.858-1.615,2.838-3.166,4.318-5.039
		c9.12-11.535,19.856-23.541,29.508-34.785c11.792-13.738,23.153-26.777,33.826-39.582c-7.263,0.105-14.094,0.037-17.752-4.318
		c-4.668-5.557-2.04-14.68,3.119-17.753c2.197-1.309,5.416-2.063,7.917-2.879c2.672-0.871,5.303-1.609,8.157-2.398
		C70.223,87.366,61.133,81.859,53.8,76.748c-4.45-3.102-10.55-6.565-10.555-13.434c-0.004-4.894,3.192-7.675,5.997-10.316
		c6.577-2.573,16.264,0.645,23.03,2.399c6.282,1.628,12.356,2.496,17.993,4.078c-1.05-4.235-4.483-7.331-4.798-12.235
		c-0.528-8.205,7.724-14.867,16.073-11.515c3.695,1.483,5.58,5.07,9.115,7.197c0.121-7.479-1.598-16.769,5.039-17.272
		c7.109-0.54,5.758,8.354,5.758,16.313c0,8.329,1.865,19.118-6.238,17.993c-2.92-0.406-6.92-4.966-9.355-6.958
		C102.51,50.26,100.213,47.208,96.742,45.801z"/>
	<path fill-rule="evenodd" clip-rule="evenodd" d="M195.821,82.986c7.473,0.603,15.867,0.284,22.07,2.158
		c3.559,3.339,2.607,9.185-3.119,9.836c-6.355,0.723-16.727-1.145-23.75-1.919c-5.982-0.659-11.928,0.116-11.756-5.997
		c0.098-3.452,4.916-7.315,7.438-9.836c7.016-7.017,13.086-15.352,20.152-22.551c1.854-1.89,3.672-4.823,6.236-5.278
		c5.9-1.047,7.932,4.808,5.518,8.636c-1.438,2.281-3.727,4.558-5.518,6.478C207.388,70.629,201.829,76.558,195.821,82.986z"/>
	<path fill-rule="evenodd" clip-rule="evenodd" d="M107.298,130.726c-2.883-3.846-5.934-6.961-7.917-11.275
		c-4.233-9.213-4.454-22.992,0-32.867c5.312-11.777,17.786-21.137,32.866-22.311c7.313-0.569,13.053,1.277,17.992,3.359
		c17.135,7.22,28.838,29.43,20.152,50.619c-3.416,8.332-11.475,16.607-19.672,20.15c-9.34,4.037-21.922,4.307-31.668,0.24
		C114.37,136.688,111.271,133.552,107.298,130.726z M113.774,83.464c-4.162,4.327-7.382,9.197-7.916,17.993
		c-1.258,20.747,20.988,37.75,41.742,27.348c8.215-4.117,15.834-12.477,15.834-25.909c0-7.738-3.984-15.253-7.678-19.192
		c-5.615-5.988-13.305-10.31-24.469-9.115C123.216,75.452,118.015,79.058,113.774,83.464z"/>
	<path fill-rule="evenodd" clip-rule="evenodd" d="M187.185,120.89c1.648,4.139,5.336,9.525,8.156,14.154
		c1.051,1.723,2.127,3.285,1.918,5.518c-0.438,4.686-6.039,6.322-9.355,2.877c-1.445-1.5-2.324-3.893-3.598-5.996
		c-2.193-3.617-4.836-7.568-7.197-11.516c-1.758-2.938-3.701-4.959-3.359-9.355c1.283-3.236,5.191-4.041,8.637-5.277
		c9.271-3.333,20.99-8.012,29.748-11.516c6.887-2.755,10.502,7.336,4.559,9.836C206.948,113.464,197.05,117.159,187.185,120.89z"/>
	<path fill-rule="evenodd" clip-rule="evenodd" d="M147.601,155.915c-4.174,8.219-9.91,19.873-14.633,29.268
		c-3.213,6.387-6.324,15.941-17.033,14.154c-11.422-1.908-9.322-17.111-8.157-29.508c-22.764,14.984-43.599,28.633-66.692,44.621
		c-2.931,2.029-7.056,5.723-10.076,5.758c-3.208,0.037-5.637-2.535-5.518-5.518c0.145-3.619,5.87-7.031,9.356-9.357
		c22.92-15.283,44.255-29.861,67.171-45.102c3.035-2.018,8.409-6.85,11.754-6.717c7.227,0.289,4.877,12.355,4.559,19.912
		c-0.248,5.875-0.916,11.561-0.24,15.354c1.65-1.238,2.676-3.295,3.6-5.277c4.441-9.535,9.631-19.332,14.873-29.027
		c2.125-3.93,4.295-12.1,8.877-12.236c3.846-0.113,7.641,4.32,10.314,6.479c18.217,14.695,36.734,29.549,55.418,44.621
		c2.586,2.086,7.67,5.947,8.156,8.396c0.707,3.564-1.479,6.955-5.518,6.717c-2.947-0.174-6.271-3.787-8.877-5.998
		C185.405,185.892,167.454,172.001,147.601,155.915z"/>
	<path fill-rule="evenodd" clip-rule="evenodd" d="M197.979,147.038c4.758-1.498,6.762,3.389,8.877,6.717
		c2.963,4.668,6.305,10.018,9.115,14.875c1.346,2.324,3.9,5.168,3.6,8.396c-0.477,5.084-6.24,6.053-9.357,2.879
		c-1.721-1.754-2.813-4.676-4.078-6.719c-2.541-4.104-5.389-8.721-8.156-13.434c-1.313-2.236-3.666-4.865-3.838-6.957
		C193.876,149.556,195.677,147.7,197.979,147.038z"/>
</g>
</svg>
