<?xml version="1.0" encoding="utf-8"?>
<!-- Generator: Adobe Illustrator 15.0.0, SVG Export Plug-In . SVG Version: 6.00 Build 0)  -->
<!DOCTYPE svg PUBLIC "-//W3C//DTD SVG 1.1//EN" "http://www.w3.org/Graphics/SVG/1.1/DTD/svg11.dtd">
<svg version="1.1" id="Ebene_1" xmlns="http://www.w3.org/2000/svg" xmlns:xlink="http://www.w3.org/1999/xlink" x="0px" y="0px"
	 width="226.771px" height="226.771px" viewBox="0 0 226.771 226.771" enable-background="new 0 0 226.771 226.771"
	 xml:space="preserve">
<g>
	<path fill-rule="evenodd" clip-rule="evenodd" d="M51.975,15.937c0.629-2.439-0.404-4.859,0.72-6.957
		c2.14-3.992,8.564-3.309,10.076,0.72c1.836,4.895,1.099,14.18,2.639,18.952c-2.604,6.829-8.619,3.445-13.914,0.48
		c-5.479-3.068-10.181-5.914-15.834-9.116c-3.661-2.074-7.432-3.55-9.116-6.478c-0.828-5.091,2.355-8.851,7.197-7.437
		c2.411,0.704,5.748,3.401,8.876,5.278C46.05,13.438,49.532,15.638,51.975,15.937z"/>
	<path fill-rule="evenodd" clip-rule="evenodd" d="M167.847,15.217c2.883-0.038,4.449-3.354,7.436-4.078
		c2.668-1.285,4.391-4.231,7.438-4.558c3.98-0.427,8.164,3.506,5.758,8.157c-0.9,1.739-3.941,3.661-5.998,5.038
		c-3.912,2.621-8.926,5.939-12.953,8.637c-1.98,1.326-5.316,3.786-6.957,3.838c-2.74,0.086-3.854-1.947-5.039-3.119
		c0.904-3.86-2.35-16.393-0.719-20.392c1.289-3.161,7.248-3.382,9.355-0.48C167.175,10.13,167.192,12.992,167.847,15.217z"/>
	<path fill-rule="evenodd" clip-rule="evenodd" d="M145.296,56.959c6.082-1.854,11.955-11.384,21.59-9.116
		c3.068,0.722,4.826,3.132,7.197,5.038c4.939,7.521-0.395,15.962-4.318,20.871c12.539-1.288,24.279-4.123,37.426-5.758
		c5.865-0.729,13.865-2.214,13.434,5.038c-0.313,5.248-5.945,5.049-11.275,5.998c-14.154,2.519-29.932,5.037-44.861,6.957
		c-2.803,0.36-5.711,1.34-7.676,0.959c-2.465-0.477-5.084-3.254-4.318-7.196c0.328-1.688,2.205-3.24,3.357-5.038
		c1.094-1.706,2.15-3.493,3.119-5.038c2.281-3.632,5.189-6.706,5.998-10.076c-2.092-1.591-4.365,0.83-5.998,1.919
		c-3.734,2.493-7.258,4.809-11.275,7.437c-2.613,1.709-4.605,4.473-8.637,3.838c-2.234-0.352-4.365-2.982-4.557-5.758
		c-1.172-16.897-1.162-37.495-2.4-56.856c1.385-4.048,7.416-4.896,9.836-1.679c1.602,2.127,1.463,7.168,1.68,11.275
		C144.312,32.884,144.774,45.812,145.296,56.959z"/>
	<path fill-rule="evenodd" clip-rule="evenodd" d="M127.782,10.179c-0.465,5.996-1.164,13.192-6.477,13.674
		c-2.928,0.266-5.73-1.617-6.236-4.318c-0.549-2.926,1.344-9.04,3.117-11.035C120.956,5.385,126.313,6.495,127.782,10.179z"/>
	<path fill-rule="evenodd" clip-rule="evenodd" d="M209.589,43.765c5.371-1.152,11.824-0.167,11.754,5.278
		c-0.021,1.777-1.182,2.557-1.918,4.078c-3.857,2.162-12.469,2.777-18.953,3.838c-2.049,0.335-4.172,1.19-5.518,0.959
		c-1.648-0.283-3.918-2.58-4.078-4.558c-0.279-3.482,3.195-6.585,5.039-9.596c2.021-3.303,3.547-6.538,5.518-8.876
		c1.154-2.333,3.137-5.844,5.277-9.356c2.021-3.317,4.508-8.768,7.438-9.356c4.297-0.863,7.453,2.16,6.957,6.477
		c-0.35,3.024-4.354,7.734-5.998,10.316C212.8,36.592,210.099,39.389,209.589,43.765z"/>
	<path fill-rule="evenodd" clip-rule="evenodd" d="M91.319,68.475c-1.445,1.935-2.983,3.962-5.998,3.838
		c-1.857-0.076-4.192-1.967-6.237-3.119C67.3,62.558,55.686,55.983,44.298,49.043c-1.786-1.089-3.874-3-6.237-2.399
		c-0.884,2.385,1.534,4.084,2.879,5.758c1.413,1.759,2.808,3.655,4.078,5.278c6.931,8.953,14.341,18.353,21.831,27.828
		c1.981,2.508,3.24,3.895,3.118,7.918c-0.79,1.688-2.32,2.637-3.838,3.598c-8.006,0.472-16.982,0.314-24.71,0.72
		c-2.393,0.126-5.641-0.684-6.957,1.439c0.593,2.164,2.908,1.787,4.798,2.399c5.736,1.857,14.137,5.422,20.871,7.437
		c3.81,1.139,8.021,2.252,7.197,7.437c-0.326,2.057-3.996,4.557-5.997,5.998c-11.804,8.504-22.944,15.949-34.546,24.471
		c-3.833,2.814-10.298,8.963-15.113,8.396c-3.013-0.355-4.966-3.023-4.559-7.197c2.561-3.465,7.572-6.791,11.516-9.596
		c3.467-2.469,7.269-4.621,10.556-6.957c7.058-5.018,13.92-9.793,20.391-14.635c-4.51-1.078-8.334-2.672-12.954-4.079
		c-7.791-2.371-17.022-8.492-11.995-19.431c3.998-8.701,17.443-6.464,28.309-7.197c-5.273-7.205-12.468-16.549-18.713-24.71
		c-3.381-4.419-7.978-7.26-7.677-14.634c0.278-6.796,6.137-12.81,14.154-11.755c3.43,0.451,6.924,3.038,10.076,4.798
		c9.629,5.376,18.717,11.221,28.308,16.313c-0.415-4.759-2.477-10.317-1.679-14.874c1.529-8.745,12.88-13.144,20.151-7.677
		c4.067,3.058,5.229,8.247,8.156,11.995c0.922-2.765,2.704-6.721,3.839-10.555c0.406-1.375,0.292-2.896,0.959-4.079
		c2.155-3.82,8.897-3.847,10.555,0.959c0.297,4.424-1.092,6.267-2.398,10.556c-0.734,2.407-1.494,5.004-2.158,7.197
		c-1.313,4.326-3.083,13.134-6.718,14.394c-6.25,2.166-9.408-6.31-11.995-10.315c-1.323-2.05-1.888-3.563-3.598-6.237
		c-0.247-0.385-2.715-5.482-4.559-5.038c-1.952,0.471-0.019,10.133,0.24,12.475C90.45,60.199,91.387,63.389,91.319,68.475z"/>
	<path fill-rule="evenodd" clip-rule="evenodd" d="M9.753,69.914c-1.263-3.243-4.265-4.125-3.599-8.396
		c0.575-3.694,5.733-6.185,9.355-3.119c1.28,1.083,1.987,3.063,3.599,5.278c3.043,4.182,6.742,7.907,7.197,10.556
		c0.545,3.177-1.18,4.013-2.639,5.757c-4.548,0.33-9.051,0.706-13.914,0.72C4.969,79.618,4.708,70.924,9.753,69.914z"/>
	<path fill-rule="evenodd" clip-rule="evenodd" d="M127.782,97.022c10.293,1.459,22.449-1.102,32.867,0.48
		c1.43,2.016,3.164,5.494,1.199,8.156c-8.002,6.31-16.561,12.068-24.23,18.713c1.098,3.49,2.779,7.102,3.6,10.795
		c0.305,1.377,1.395,2.457,1.918,3.838c0.76,2,1.238,4.949,2.16,7.438c1.424,3.846,2.541,6.164,1.68,9.596
		c-4.412,5.371-9.162,0.947-13.195-1.92c-5.963-4.236-13.107-8.891-18.711-12.713c-8.429,5.805-16.15,12.318-24.47,18.23
		c-1.6,0-3.199,0-4.798,0c-4.021-3.953-1.709-7.451-0.24-12.713c1.439-5.156,2.634-9.223,4.318-14.395
		c0.553-1.697,2.187-6.139,1.919-7.197c-0.294-1.164-4.536-3.344-6.237-4.559c-4.595-3.277-8.104-5.484-12.715-8.637
		c-3.531-2.414-9.953-6.624-5.518-11.994c1.093-0.107,1.644-1.354,2.639-1.439c9.061-0.786,19.098-0.033,29.748-0.48
		c1.094-1.439,1.383-3.319,1.919-5.277c0.454-1.659,1.379-3.26,1.919-5.038c0.339-1.115,0.109-2.394,0.479-3.599
		c0.737-2.394,1.869-5.021,2.64-7.676c1.747-6.021,2.704-12.019,10.315-9.356c0.707,0.733,0.912,1.967,1.92,2.399
		C121.321,79.334,125.44,87.291,127.782,97.022z M109.311,106.139c-1.188,0.698-1.848,2.263-3.358,2.64
		c-4.87,1.21-11.775-0.416-17.273,0.479c1.766,1.923,4.407,3.423,6.957,5.279c3.68,2.676,8.873,3.785,7.917,10.076
		c-0.757,4.982-4.12,10.65-4.558,15.354c2.975-2.453,5.535-4.463,8.876-6.957c1.907-1.424,4.233-3.527,5.997-3.84
		c2.982-0.525,4.521,0.91,6.478,2.16c2.703,1.727,4.807,3.664,7.197,5.277c1.271,0.859,2.529,2.191,3.357,1.92
		c-1.162-6.531-5.383-11.229-5.037-18.473c0.523-0.756,1.264-1.295,1.68-2.16c3.273-2.055,6.959-4.979,10.074-7.198
		c1.018-0.723,2.574-1.575,2.4-2.638c-8.426-0.094-17.936,2.501-20.633-3.118c-1.961-4.088-3.705-11.616-5.517-15.114
		C112.44,95.354,110.566,100.437,109.311,106.139z"/>
	<path fill-rule="evenodd" clip-rule="evenodd" d="M182.96,116.214c8.436,4.725,20.09,6.992,27.828,11.996
		c8.936,5.777,5.826,20.676-4.559,22.791c-3.26,0.662-7.41,0.486-11.514,0.719c-10.193,0.58-24.996,1.506-33.826,1.92
		c0.924,6.648,2.43,10.902,4.078,17.271c0.465,1.795,1.385,4.119,1.199,5.998c-0.551,5.592-8.787,6.5-11.035,1.199
		c-0.889-2.094-1.154-5.174-1.92-8.156c-1.283-5.006-2.805-10.666-4.078-15.834c-1.252-5.09-1.734-9.617,2.879-11.035
		c3.691-1.133,9.25-0.357,13.674-0.719c11.451-0.936,21.816-1.514,33.586-2.16c3.459-0.189,5.512-0.059,5.758-1.439
		c0.32-1.789-7.953-4.445-9.355-5.037c-10.219-4.305-20.533-7.979-29.988-13.195c-0.793-1.752-1.16-3.563-0.719-5.996
		c7.08-5.529,15.73-9.838,23.99-14.395c8.498-4.69,16.316-9.846,24.469-13.675c3.865-1.815,9.389,2.492,6.957,7.677
		c-1.064,2.27-6.217,4.523-8.875,5.998C202.009,105.406,191.694,111.114,182.96,116.214z"/>
	<path fill-rule="evenodd" clip-rule="evenodd" d="M6.155,127.97c-1.021-1.857-1.06-5.674,0.479-6.957
		c-0.821-1.258-1.178-2.98-0.96-5.277c2.218-4.995,6.418-3.659,11.036-1.44c2.739,1.317,5.975,2.788,5.037,6.717
		c-0.369,1.549-2.76,3.652-4.078,4.799C14.737,128.358,10.15,132.282,6.155,127.97z"/>
	<path fill-rule="evenodd" clip-rule="evenodd" d="M64.45,204.259c2.778-0.377,4.293-3.094,5.998-4.799
		c8.785-8.785,17.362-17.232,26.389-26.629c1.436-1.494,3.452-3.268,5.277-5.277c1.79-1.971,3.54-4.346,6.237-4.318
		c4.867,0.047,8.015,7.941,10.556,11.516c6.559,9.227,11.084,17.178,17.512,26.389c1.26,1.803,2.93,4.01,4.559,6.477
		c1.336,2.021,3.832,4.9,4.078,6.717c0.492,3.643-2.424,7.475-6.957,6.479c-3.168-0.695-6.473-6.502-8.637-9.836
		c-7.273-11.217-14.906-22.877-21.831-33.107c-11.648,10.982-23.433,23.908-35.265,35.506c-9.49,5.432-21.227-0.893-19.672-12.715
		c0.373-2.834,2.396-7.465,3.599-10.555c3.826-9.836,7.733-21.311,11.275-30.947c-14.802,3.082-32.744,7.18-48.7,11.275
		c-4.97,1.275-11.063,2.088-11.755-3.359c-0.715-5.631,3.768-5.982,8.877-7.438c12.948-3.686,28.771-6.971,41.981-9.834
		c6.175-1.34,11.393-3.295,17.753-4.08c2.8-0.344,4.842,0.697,6.237,3.359c-0.015,6.287-2.853,11.203-4.798,16.313
		c-4.202,11.039-7.468,21.75-11.755,32.627C64.716,199.78,63.172,202.308,64.45,204.259z"/>
	<path fill-rule="evenodd" clip-rule="evenodd" d="M198.073,185.306c1.834,8.012,3.551,14.213,5.518,22.311
		c1.105,4.545,2.898,11.717-3.598,12.234c-6.08,0.484-6.344-6.07-7.678-11.514c-1.602-6.535-2.975-12.83-4.797-19.193
		c-1.313-4.584-4.123-12.541,0.479-14.633c2.877-1.309,9.271-0.846,13.914-1.199c5.242-0.4,9.889-1.678,13.914-1.439
		c6.508,0.383,6.719,8.32,2.641,10.555c-1.439,0.789-4.459,0.93-6.957,1.199C206.845,184.132,202.323,184.478,198.073,185.306z"/>
	<path fill-rule="evenodd" clip-rule="evenodd" d="M33.743,220.091c-7.898-4.641,1.771-16.865,2.399-23.99
		c-2.086-1.521-4.318-0.098-6.237,0.48c-4.296,1.293-8.043,1.873-12.955,3.119c-4.229,1.072-9.976,1.516-10.075-4.318
		c-0.096-5.555,6.507-6.076,11.755-7.438c8.142-2.111,19.195-5.045,26.629-6.477c1.972-0.381,5.046,1.91,5.518,3.119
		c1.039,2.662-0.732,6.893-1.68,9.596c-2.14,6.109-3.925,10.668-6.237,17.271C41.187,216.229,40.839,221.226,33.743,220.091z"/>
	<path fill-rule="evenodd" clip-rule="evenodd" d="M163.288,186.505c7.467-1.484,7.566,8.91,9.117,14.875
		c1.121,4.316,3.48,10.504,3.357,13.914c-0.229,6.328-8.811,6.842-11.035,1.678c-0.729-1.689-0.781-4.271-1.439-6.717
		c-1.027-3.816-2.137-8.529-3.119-12.715C159.026,192.675,157.509,187.655,163.288,186.505z"/>
</g>
</svg>
